<svg id="Layer_1" data-name="Layer 1" xmlns="http://www.w3.org/2000/svg" viewBox="0 0 395.78 213.45"><defs><style>.cls-1{fill:#ffffff;}.cls-2{fill:#ccc;}.cls-3{fill:#fff;}.cls-4{fill:#ce1126;}</style></defs><rect class="cls-1" x="5.64" y="189.84" width="128" height="17.48"/><path class="cls-2" d="M133.52,190V207.2H5.77V190H133.52m.25-.25H5.52v17.73H133.77V189.72Z"/><rect class="cls-3" x="134.27" y="190.22" width="127.25" height="16.73"/><path class="cls-2" d="M261,190.72v15.73H134.77V190.72H261m1-1H133.77v17.73H262V189.72Z"/><rect class="cls-4" x="262.02" y="189.72" width="128.25" height="17.73"/><path class="cls-1" d="M69.74,17.37l-13.4,65.4L45.29,17.37A29.9,29.9,0,0,0,23,18.24,38.08,38.08,0,0,0,12.6,25a33.66,33.66,0,0,0-7.26,9.5A23.47,23.47,0,0,0,2.61,45.29q0,8,4.46,11.3t11.67,3.35a9.56,9.56,0,0,0-1.12-1.68,12.61,12.61,0,0,1-1.49-2.54,21.17,21.17,0,0,1-1.3-4.1,29,29,0,0,1-.56-6.2A23.22,23.22,0,0,1,18.06,32,22.62,22.62,0,0,1,28.79,23.7l-13.28,85h9.93L34.25,53l9.43,55.72h17L72.22,53l3.85,55.72H93.94L87.61,17.37Z"/><path class="cls-1" d="M207.8,49.64A11.35,11.35,0,0,0,204.45,47a9.24,9.24,0,0,0-4.28-1,11.91,11.91,0,0,0-7.33,2.54,38.59,38.59,0,0,0-6.08,5.77V46.66H168.89V91.39a12,12,0,0,1-1.67,2.92,7.35,7.35,0,0,1-6,3.1c-2.4,0-4.08-.55-5-1.67s-1.42-3.41-1.42-6.89V46.66H136.88v6a8.55,8.55,0,0,0-2.11-3.54,10,10,0,0,0-3-2,12.17,12.17,0,0,0-3.35-.87,31.43,31.43,0,0,0-3.23-.18,18.2,18.2,0,0,0-11,3.29,25.09,25.09,0,0,0-7.32,8.37,41.12,41.12,0,0,0-4.1,11.17,56.21,56.21,0,0,0-1.3,11.79,41.72,41.72,0,0,0,1.92,13.59,24.36,24.36,0,0,0,5.09,8.87,19.06,19.06,0,0,0,7,4.84,21.37,21.37,0,0,0,7.82,1.49,16.25,16.25,0,0,0,5.9-1,15.73,15.73,0,0,0,4.46-2.61,16.8,16.8,0,0,0,3.29-3.66A32.08,32.08,0,0,0,139.36,98a16.26,16.26,0,0,0,4.78,8.37q3.41,3,10,3a26.06,26.06,0,0,0,5.7-.74,16.13,16.13,0,0,0,6.33-3.17,16.87,16.87,0,0,0,2.73-2.69v5.86h17.87V61.55A36.23,36.23,0,0,1,190.55,58a5.86,5.86,0,0,1,3.66-1.42,2.52,2.52,0,0,1,2.42,1.24c.45.83.89,1.72,1.3,2.67a9.53,9.53,0,0,0,1.74,2.66c.74.83,2.07,1.24,4,1.24,2.56,0,4.41-.76,5.52-2.29a8.34,8.34,0,0,0,1.68-5,10,10,0,0,0-.81-3.91A12.75,12.75,0,0,0,207.8,49.64ZM136.88,86.49a13.86,13.86,0,0,1-.75,4.78,10.55,10.55,0,0,1-1.92,3.41,7.91,7.91,0,0,1-2.61,2,6.36,6.36,0,0,1-2.79.68,14.66,14.66,0,0,1-2.73-.31,5.34,5.34,0,0,1-3-2,14,14,0,0,1-2.42-5.34,41.15,41.15,0,0,1-1-10.24,62.56,62.56,0,0,1,.62-8.62,43.3,43.3,0,0,1,1.92-8.31,19.18,19.18,0,0,1,3.48-6.33,6.55,6.55,0,0,1,5.15-2.55,5.76,5.76,0,0,1,2.6.56,6.16,6.16,0,0,1,1.86,1.37,6.27,6.27,0,0,1,1.12,1.61,8.6,8.6,0,0,1,.5,1.3Z"/><path class="cls-1" d="M224,40a9.63,9.63,0,0,0,7-2.86,9.34,9.34,0,0,0,2.92-7A10,10,0,0,0,224,20.23a9.36,9.36,0,0,0-7,2.91,9.68,9.68,0,0,0-2.85,7A9.75,9.75,0,0,0,224,40Z"/><path class="cls-1" d="M301.24,95.74c-.95-1.12-1.43-3.41-1.43-6.89V46.66H281.94v6a8.45,8.45,0,0,0-2.11-3.54,9.91,9.91,0,0,0-3-2,12.08,12.08,0,0,0-3.35-.87,31.39,31.39,0,0,0-3.22-.18,18.23,18.23,0,0,0-11,3.29A25.09,25.09,0,0,0,252,57.7a41.11,41.11,0,0,0-4.09,11.17,56.21,56.21,0,0,0-1.3,11.79,47.51,47.51,0,0,0,1,10.56,12,12,0,0,1-1.74,3.09,7.34,7.34,0,0,1-6,3.1c-2.41,0-4.08-.55-5-1.67s-1.43-3.41-1.43-6.89V46.66H215.55V90.22q0,8.69,3.85,14t13.4,5.27a26.07,26.07,0,0,0,5.71-.74,16.27,16.27,0,0,0,6.33-3.17,22.11,22.11,0,0,0,5.57-6.92,20.65,20.65,0,0,0,3.18,4.5,19,19,0,0,0,7,4.84,21.33,21.33,0,0,0,7.82,1.49,16.19,16.19,0,0,0,5.89-1,15.65,15.65,0,0,0,4.47-2.61,17.06,17.06,0,0,0,3.29-3.66A32,32,0,0,0,284.42,98a16.56,16.56,0,0,0,4.47,8.31q3.23,3.11,9.43,3.1,5.22,0,7.26-2.79t3.17-9.74a5.56,5.56,0,0,1-2.48.49C303.87,97.41,302.19,96.86,301.24,95.74Zm-19.3-9.12a13.54,13.54,0,0,1-.74,4.71,10.88,10.88,0,0,1-1.93,3.35,7.78,7.78,0,0,1-2.6,2,6.36,6.36,0,0,1-2.79.68,14.49,14.49,0,0,1-2.73-.31,5.34,5.34,0,0,1-3-2,13.9,13.9,0,0,1-2.42-5.34,40.6,40.6,0,0,1-1-10.24,64.17,64.17,0,0,1,.62-8.62,44,44,0,0,1,1.93-8.31,19.17,19.17,0,0,1,3.47-6.33,6.58,6.58,0,0,1,5.15-2.55,5.45,5.45,0,0,1,2.55.56,7.7,7.7,0,0,1,1.8,1.3,5.73,5.73,0,0,1,1.11,1.55c.25.54.46,1,.62,1.31Z"/><path class="cls-1" d="M323.51,15.88a8.87,8.87,0,0,0-6.45,2.55,8.24,8.24,0,0,0-2.6,6.14A7,7,0,0,0,316,29.1a13.77,13.77,0,0,0,3.91,3.29,2.68,2.68,0,0,1,1.48,2.11l-6.08,8.68a1.92,1.92,0,0,0,1.12,1.74,39.08,39.08,0,0,0,11.05-10.3q4-5.7,4-10.55a8.53,8.53,0,0,0-2-5.89A7.5,7.5,0,0,0,323.51,15.88Z"/><path class="cls-1" d="M380.23,83.64a87.61,87.61,0,0,0-1.74-8.75q-1.25-5-3.35-12.53t-5.21-19.55l-17.87,2.48a122.81,122.81,0,0,1-3.42,18.31,176.43,176.43,0,0,1-6,18.43,7.81,7.81,0,0,0-3.28,3.35,11.6,11.6,0,0,0-1.31,5.7,16.35,16.35,0,0,0,1.37,6.27,17.91,17.91,0,0,0,4.09,6,21.68,21.68,0,0,0,6.83,4.4,24.26,24.26,0,0,0,9.55,1.74,29.21,29.21,0,0,0,7.08-.93,21.12,21.12,0,0,0,6.76-3,16.53,16.53,0,0,0,5-5.4,15.82,15.82,0,0,0,2-8.19A63.44,63.44,0,0,0,380.23,83.64ZM360,97.72a10.13,10.13,0,0,1-6.21,1.93,8.49,8.49,0,0,1-6.26-2.17A13.16,13.16,0,0,1,344.36,91a2.88,2.88,0,0,0,1.68,1.3,7.07,7.07,0,0,0,2,.31A3.71,3.71,0,0,0,351.31,91a5.66,5.66,0,0,0,1.12-3.41,5,5,0,0,0-1.06-3.29A6.57,6.57,0,0,0,349,82.4q2-6,3.79-11.48a108.91,108.91,0,0,0,3-11.48q1.86,7,3.16,11.54t2.11,7.94c.54,2.24.93,4.24,1.18,6a43.68,43.68,0,0,1,.37,6C362.6,94.19,361.74,96.44,360,97.72Z"/><polygon class="cls-1" points="26.51 153.96 17.52 131.79 8.31 131.79 8.31 163.82 16.11 163.82 16.11 144.56 23.32 163.82 29.62 163.82 36.78 144.61 36.78 163.82 44.58 163.82 44.58 131.79 35.41 131.79 26.51 153.96"/><path class="cls-1" d="M68.08,139.54A13.68,13.68,0,0,0,61.51,138a13.84,13.84,0,0,0-6.71,1.6,11.26,11.26,0,0,0-4.54,4.56,14.26,14.26,0,0,0-1.62,6.94A14,14,0,0,0,50.29,158a11.34,11.34,0,0,0,4.56,4.57,13.69,13.69,0,0,0,6.66,1.59A13.39,13.39,0,0,0,67.12,163a11.56,11.56,0,0,0,4.18-3.15,11.25,11.25,0,0,0,2.3-4.51H65.3a4.11,4.11,0,0,1-4.06,2.46,4.7,4.7,0,0,1-3.31-1.25A5.3,5.3,0,0,1,56.4,153H74.06a20.2,20.2,0,0,0,.14-2.28A13.55,13.55,0,0,0,72.58,144,11.15,11.15,0,0,0,68.08,139.54Zm-11.63,9.08a5.08,5.08,0,0,1,1.66-3.24,5,5,0,0,1,3.31-1.14,5,5,0,0,1,3.42,1.19,4,4,0,0,1,1.37,3.19Z"/><polygon class="cls-1" points="101.89 138.36 93.45 138.36 89.34 145.38 84.46 138.36 75.7 138.36 84.32 150.81 75.93 163.82 84.37 163.82 88.48 156.75 93.36 163.82 102.12 163.82 93.36 151.18 101.89 138.36"/><path class="cls-1" d="M109.06,127.27a4.73,4.73,0,0,0-3.36,1.21,4,4,0,0,0-1.3,3,3.9,3.9,0,0,0,1.3,3,4.73,4.73,0,0,0,3.36,1.21,4.63,4.63,0,0,0,3.3-1.21,3.9,3.9,0,0,0,1.3-3,4,4,0,0,0-1.3-3A4.63,4.63,0,0,0,109.06,127.27Z"/><rect class="cls-1" x="105.13" y="138.36" width="7.8" height="25.46"/><path class="cls-1" d="M129.68,144.65a4,4,0,0,1,4.06,2.92H142a11.79,11.79,0,0,0-4.22-7.07,12.62,12.62,0,0,0-8-2.51,13.56,13.56,0,0,0-6.64,1.6,11.28,11.28,0,0,0-4.52,4.56,15.65,15.65,0,0,0,0,13.87,11.3,11.3,0,0,0,4.52,4.57,13.56,13.56,0,0,0,6.64,1.59,12.5,12.5,0,0,0,8-2.55,11.93,11.93,0,0,0,4.24-7h-8.3a4,4,0,0,1-4.06,2.92,4.08,4.08,0,0,1-3.42-1.66,9.53,9.53,0,0,1,0-9.54A4.09,4.09,0,0,1,129.68,144.65Z"/><path class="cls-1" d="M163.72,142a8.07,8.07,0,0,0-3.13-2.87,9.77,9.77,0,0,0-4.72-1.1,10.56,10.56,0,0,0-5.7,1.6,11,11,0,0,0-4,4.56,15.22,15.22,0,0,0-1.48,6.89,15.38,15.38,0,0,0,1.48,6.92,11.15,11.15,0,0,0,4,4.6,10.35,10.35,0,0,0,5.66,1.62,9.82,9.82,0,0,0,4.72-1.09,8.43,8.43,0,0,0,3.17-2.88v3.61h7.8V138.36h-7.8ZM162.1,155.7a5.28,5.28,0,0,1-3.95,1.68,5.2,5.2,0,0,1-3.94-1.71,6.41,6.41,0,0,1-1.63-4.63,6.26,6.26,0,0,1,1.63-4.58,5.47,5.47,0,0,1,7.89,0,7.37,7.37,0,0,1,0,9.22Z"/><path class="cls-1" d="M192.69,138.08a10.23,10.23,0,0,0-4.52,1,8.38,8.38,0,0,0-3.19,2.67v-3.37h-7.8v25.46H185V150a5.61,5.61,0,0,1,1.32-4,5.2,5.2,0,0,1,7.12,0,5.62,5.62,0,0,1,1.33,4v13.83h7.75V148.94c0-3.37-.89-6-2.67-8A9.25,9.25,0,0,0,192.69,138.08Z"/><polygon class="cls-1" points="245.26 131.79 236.08 131.79 225.41 145.84 225.41 131.79 217.6 131.79 217.6 163.82 225.41 163.82 225.41 149.67 236.18 163.82 245.71 163.82 232.84 147.48 245.26 131.79"/><path class="cls-1" d="M253.33,127.27a4.69,4.69,0,0,0-3.35,1.21,4,4,0,0,0-1.3,3,3.9,3.9,0,0,0,1.3,3,5.19,5.19,0,0,0,6.66,0,3.9,3.9,0,0,0,1.3-3,4,4,0,0,0-1.3-3A4.66,4.66,0,0,0,253.33,127.27Z"/><rect class="cls-1" x="249.41" y="138.36" width="7.8" height="25.46"/><path class="cls-1" d="M272.45,156.7a2.11,2.11,0,0,1-.55-1.64V144.84H277v-6.48H271.9v-6.21h-7.8v6.21H261v6.48h3.1V155q0,4.69,2.37,6.77a9.69,9.69,0,0,0,6.62,2.08h4V157.2h-2.78A2.65,2.65,0,0,1,272.45,156.7Z"/><path class="cls-1" d="M292.48,144.65a4,4,0,0,1,4.06,2.92h8.31a11.85,11.85,0,0,0-4.23-7.07,12.62,12.62,0,0,0-8-2.51,13.56,13.56,0,0,0-6.64,1.6,11.28,11.28,0,0,0-4.52,4.56,15.65,15.65,0,0,0,0,13.87,11.3,11.3,0,0,0,4.52,4.57,13.56,13.56,0,0,0,6.64,1.59,12.5,12.5,0,0,0,8-2.55,12,12,0,0,0,4.25-7h-8.31a4,4,0,0,1-4.06,2.92,4.08,4.08,0,0,1-3.42-1.66,9.53,9.53,0,0,1,0-9.54A4.09,4.09,0,0,1,292.48,144.65Z"/><path class="cls-1" d="M324.65,138.08a10.34,10.34,0,0,0-4.61,1,8.29,8.29,0,0,0-3.24,2.69V130.05H309v33.77h7.8V150a5.61,5.61,0,0,1,1.32-4,5.2,5.2,0,0,1,7.12,0,5.62,5.62,0,0,1,1.33,4v13.83h7.75V148.94c0-3.37-.88-6-2.64-8A9.08,9.08,0,0,0,324.65,138.08Z"/><path class="cls-1" d="M357.64,139.54a14.79,14.79,0,0,0-13.28.05,11.2,11.2,0,0,0-4.54,4.56,14.26,14.26,0,0,0-1.62,6.94,14.12,14.12,0,0,0,1.64,6.93,11.42,11.42,0,0,0,4.57,4.57,13.66,13.66,0,0,0,6.66,1.59,13.42,13.42,0,0,0,5.61-1.14,11.52,11.52,0,0,0,4.17-3.15,11.4,11.4,0,0,0,2.31-4.51h-8.31a4.1,4.1,0,0,1-4.06,2.46,4.66,4.66,0,0,1-3.3-1.25A5.3,5.3,0,0,1,346,153h17.65a18.1,18.1,0,0,0,.14-2.28,13.44,13.44,0,0,0-1.62-6.71A11.19,11.19,0,0,0,357.64,139.54ZM346,148.62a5.09,5.09,0,0,1,1.67-3.24,4.93,4.93,0,0,1,3.31-1.14,5.05,5.05,0,0,1,3.42,1.19,4,4,0,0,1,1.37,3.19Z"/><path class="cls-1" d="M390.51,141a9.25,9.25,0,0,0-7.14-2.9,10.23,10.23,0,0,0-4.52,1,8.38,8.38,0,0,0-3.19,2.67v-3.37h-7.8v25.46h7.8V150a5.61,5.61,0,0,1,1.32-4,5.2,5.2,0,0,1,7.12,0,5.62,5.62,0,0,1,1.33,4v13.83h7.75V148.94C393.18,145.57,392.29,142.91,390.51,141Z"/></svg>