<svg id="Layer_1" data-name="Layer 1" xmlns="http://www.w3.org/2000/svg" viewBox="0 0 401.49 169.11"><defs><style>.cls-1{fill:#006847;}</style></defs><path class="cls-1" d="M92.31,129.72v20.54h-5V137.94l-4.6,12.32h-4l-4.63-12.35v12.35h-5V129.72H75l5.76,14.22,5.71-14.22Z"/><path class="cls-1" d="M111.21,143.3H99.89a3.37,3.37,0,0,0,1,2.32,3,3,0,0,0,2.12.81,2.62,2.62,0,0,0,2.6-1.58h5.33a7.37,7.37,0,0,1-4.16,4.91,8.54,8.54,0,0,1-3.59.74,8.83,8.83,0,0,1-4.28-1A7.33,7.33,0,0,1,96,146.55a9,9,0,0,1-1.06-4.45,9.17,9.17,0,0,1,1-4.45,7.33,7.33,0,0,1,2.91-2.93,8.88,8.88,0,0,1,4.31-1,8.75,8.75,0,0,1,4.21,1,7.16,7.16,0,0,1,2.88,2.84,8.66,8.66,0,0,1,1,4.3A12.59,12.59,0,0,1,111.21,143.3Zm-5-2.78a2.56,2.56,0,0,0-.88-2.05,3.21,3.21,0,0,0-2.19-.76,3.14,3.14,0,0,0-2.12.73,3.21,3.21,0,0,0-1.07,2.08Z"/><path class="cls-1" d="M123.59,150.26l-3.13-4.53-2.64,4.53h-5.41l5.39-8.34-5.54-8h5.62l3.13,4.51,2.64-4.51h5.41l-5.47,8.23,5.62,8.1Z"/><path class="cls-1" d="M131.5,131.46a2.51,2.51,0,0,1-.83-1.91,2.58,2.58,0,0,1,.83-2,3,3,0,0,1,2.15-.78,3,3,0,0,1,2.13.78,2.58,2.58,0,0,1,.83,2,2.51,2.51,0,0,1-.83,1.91,3,3,0,0,1-2.13.78A3,3,0,0,1,131.5,131.46Zm4.64,2.47v16.33h-5V133.93Z"/><path class="cls-1" d="M139.81,137.65a7.3,7.3,0,0,1,2.9-2.93,8.71,8.71,0,0,1,4.26-1,8.1,8.1,0,0,1,5.13,1.61,7.56,7.56,0,0,1,2.71,4.53h-5.33a2.56,2.56,0,0,0-2.6-1.87,2.64,2.64,0,0,0-2.2,1.07,6.17,6.17,0,0,0,0,6.11,2.62,2.62,0,0,0,2.2,1.07,2.55,2.55,0,0,0,2.6-1.87h5.33a7.73,7.73,0,0,1-2.72,4.51A8.05,8.05,0,0,1,147,150.5a8.72,8.72,0,0,1-4.26-1,7.28,7.28,0,0,1-2.9-2.92,10,10,0,0,1,0-8.9Z"/><path class="cls-1" d="M157.43,137.65a7.06,7.06,0,0,1,2.59-2.93,6.76,6.76,0,0,1,3.65-1,6.28,6.28,0,0,1,3,.7,5.15,5.15,0,0,1,2,1.85v-2.32h5v16.33h-5V148a5.44,5.44,0,0,1-2,1.84,6.25,6.25,0,0,1-3,.71,6.64,6.64,0,0,1-3.62-1,7.14,7.14,0,0,1-2.59-3,10.78,10.78,0,0,1,0-8.85Zm10.24,1.49a3.51,3.51,0,0,0-5.06,0,4,4,0,0,0-1,2.94,4.11,4.11,0,0,0,1,3,3.47,3.47,0,0,0,5.06,0,4.72,4.72,0,0,0,0-5.91Z"/><path class="cls-1" d="M191.87,135.62a7.25,7.25,0,0,1,1.71,5.1v9.54h-5v-8.87a3.55,3.55,0,0,0-.85-2.54,3.31,3.31,0,0,0-4.56,0,3.55,3.55,0,0,0-.85,2.54v8.87h-5V133.93h5v2.17a5.31,5.31,0,0,1,2-1.71,6.5,6.5,0,0,1,2.9-.63A5.94,5.94,0,0,1,191.87,135.62Z"/><path class="cls-1" d="M203.73,134.53a9.42,9.42,0,0,1,3.67-3.71,10.63,10.63,0,0,1,5.34-1.33,10.18,10.18,0,0,1,6.26,1.93,9.23,9.23,0,0,1,3.48,5.26H217a4.5,4.5,0,0,0-1.74-2,5,5,0,0,0-2.56-.67,4.77,4.77,0,0,0-3.74,1.61,7.14,7.14,0,0,0,0,8.6,4.77,4.77,0,0,0,3.74,1.61,4.87,4.87,0,0,0,2.56-.67,4.45,4.45,0,0,0,1.74-2h5.5a9.17,9.17,0,0,1-3.48,5.25,10.24,10.24,0,0,1-6.26,1.92,10.74,10.74,0,0,1-5.34-1.33,9.42,9.42,0,0,1-3.67-3.71,11.79,11.79,0,0,1,0-10.84Z"/><path class="cls-1" d="M225.51,137.65a7.2,7.2,0,0,1,2.59-2.93,6.77,6.77,0,0,1,3.66-1,6.28,6.28,0,0,1,3,.7,5.12,5.12,0,0,1,2,1.85v-2.32h5v16.33h-5V148a5.41,5.41,0,0,1-2,1.84,6.28,6.28,0,0,1-3,.71,6.65,6.65,0,0,1-3.63-1,7.29,7.29,0,0,1-2.59-3,10.78,10.78,0,0,1,0-8.85Zm10.24,1.49a3.36,3.36,0,0,0-2.53-1.08,3.41,3.41,0,0,0-2.53,1.07,4,4,0,0,0-1,2.94,4.15,4.15,0,0,0,1,3,3.47,3.47,0,0,0,5.06,0,4.72,4.72,0,0,0,0-5.91Z"/><path class="cls-1" d="M254.52,146v4.24H252a6.24,6.24,0,0,1-4.25-1.33,5.53,5.53,0,0,1-1.52-4.35v-6.49h-2v-4.16h2v-4h5v4h3.27v4.16h-3.27v6.55a1.37,1.37,0,0,0,.35,1.06,1.72,1.72,0,0,0,1.17.32Z"/><path class="cls-1" d="M272.61,143.3H261.28a3.42,3.42,0,0,0,1,2.32,3,3,0,0,0,2.12.81,2.64,2.64,0,0,0,2.61-1.58h5.32a7.22,7.22,0,0,1-1.47,2.89,7.4,7.4,0,0,1-2.68,2,8.55,8.55,0,0,1-3.6.74,8.76,8.76,0,0,1-4.27-1,7.29,7.29,0,0,1-2.93-2.92,10,10,0,0,1,0-8.9,7.2,7.2,0,0,1,2.91-2.93,8.84,8.84,0,0,1,4.3-1,8.75,8.75,0,0,1,4.21,1,7.16,7.16,0,0,1,2.88,2.84,8.56,8.56,0,0,1,1,4.3C272.69,142.3,272.66,142.79,272.61,143.3Zm-5-2.78a2.59,2.59,0,0,0-.87-2.05,3.24,3.24,0,0,0-2.2-.76,3.14,3.14,0,0,0-2.12.73,3.25,3.25,0,0,0-1.07,2.08Z"/><path class="cls-1" d="M282.52,134.53a5.75,5.75,0,0,1,2.93-.77v5.29h-1.37a4.24,4.24,0,0,0-2.82.81,3.59,3.59,0,0,0-.93,2.82v7.58h-5V133.93h5v2.73A6.64,6.64,0,0,1,282.52,134.53Z"/><path class="cls-1" d="M288.22,131.46a2.48,2.48,0,0,1-.84-1.91,2.55,2.55,0,0,1,.84-2,3.31,3.31,0,0,1,4.27,0,2.58,2.58,0,0,1,.83,2,2.51,2.51,0,0,1-.83,1.91,3.31,3.31,0,0,1-4.27,0Zm4.63,2.47v16.33h-5V133.93Z"/><path class="cls-1" d="M311,135.62a7.25,7.25,0,0,1,1.71,5.1v9.54h-5v-8.87a3.59,3.59,0,0,0-.85-2.54,3.32,3.32,0,0,0-4.57,0,3.59,3.59,0,0,0-.85,2.54v8.87h-5V133.93h5v2.17a5.31,5.31,0,0,1,2-1.71,6.53,6.53,0,0,1,2.9-.63A5.92,5.92,0,0,1,311,135.62Z"/><path class="cls-1" d="M325.43,134.4a5.15,5.15,0,0,1,2,1.85v-2.32h5v16.3a9.25,9.25,0,0,1-.89,4.08,6.81,6.81,0,0,1-2.72,2.91,8.74,8.74,0,0,1-4.55,1.09,9.46,9.46,0,0,1-5.88-1.71,6.45,6.45,0,0,1-2.58-4.64h4.94a2.42,2.42,0,0,0,1.12,1.48A4,4,0,0,0,324,154a3.4,3.4,0,0,0,2.48-.9,3.83,3.83,0,0,0,.92-2.85v-2.31a5.59,5.59,0,0,1-2,1.86,6.08,6.08,0,0,1-3,.72,6.7,6.7,0,0,1-3.65-1,7.14,7.14,0,0,1-2.59-3,10.78,10.78,0,0,1,0-8.85,7.06,7.06,0,0,1,2.59-2.93,6.76,6.76,0,0,1,3.65-1A6.25,6.25,0,0,1,325.43,134.4Zm1,4.74a3.51,3.51,0,0,0-5.06,0,4,4,0,0,0-1,2.94,4.11,4.11,0,0,0,1,3,3.47,3.47,0,0,0,5.06,0,4.72,4.72,0,0,0,0-5.91Z"/><path class="cls-1" d="M56.43,79.91l3-68.18A28.45,28.45,0,0,0,49.32,9.92a37.84,37.84,0,0,0-14.56,3,49.47,49.47,0,0,0-13.1,8,43.26,43.26,0,0,0-9.45,11.13A24.29,24.29,0,0,0,8.57,44.47q0,6.33,3.77,9t9.94,2.65a10.86,10.86,0,0,0-.45-1,8.23,8.23,0,0,1-.58-1.61c-.18-.65-.35-1.47-.52-2.46a22.24,22.24,0,0,1-.26-3.82q0-11.13,5.43-18.5A30.05,30.05,0,0,1,41,18.07L8.31,107H18.55L40.13,48.61,37.55,107H55.27L79.59,48.86,71.31,107H89.94l13.58-95.22H84.9Z"/><path class="cls-1" d="M223.13,54.69a10.21,10.21,0,0,0,.58-3.37,10.85,10.85,0,0,0-2.27-6.73,7.85,7.85,0,0,0-6.66-3,14.75,14.75,0,0,0-7.95,2.59A48.7,48.7,0,0,0,199,50.42l1.81-8.15H182.18l-8.82,41.59a22.46,22.46,0,0,1-4.05,8.08,8,8,0,0,1-6.4,3.24,6.35,6.35,0,0,1-4-1c-.87-.69-1.3-1.94-1.3-3.75a17.9,17.9,0,0,1,.52-4.14l9.44-44H148.8l-1.29,6.08A7.69,7.69,0,0,0,146,44.79a7.3,7.3,0,0,0-2.58-2.07,10.18,10.18,0,0,0-3.24-.91,29.64,29.64,0,0,0-3.3-.19,24.15,24.15,0,0,0-10.28,2.13,31,31,0,0,0-8.35,5.7,37.12,37.12,0,0,0-6.47,8.21,58.09,58.09,0,0,0-4.52,9.7,62.18,62.18,0,0,0-2.72,10.09,53.2,53.2,0,0,0-.91,9.45,29,29,0,0,0,1.43,9.77,17,17,0,0,0,3.88,6.4,14.84,14.84,0,0,0,5.5,3.56,18.72,18.72,0,0,0,6.4,1.1,18.45,18.45,0,0,0,6.34-1,22.41,22.41,0,0,0,5.24-2.71,24.94,24.94,0,0,0,4.33-3.88,37.69,37.69,0,0,0,3.37-4.4q.77,5.56,4.07,8.4a12.7,12.7,0,0,0,8.6,2.85,31.36,31.36,0,0,0,6-.65,18.89,18.89,0,0,0,6.92-3,25,25,0,0,0,4.37-3.82L168.47,107H187.1l10.35-49.16A39.35,39.35,0,0,1,202.23,54a8.43,8.43,0,0,1,4.66-1.42,1.61,1.61,0,0,1,1.75,1.29c.21.86.45,1.79.71,2.78a7.91,7.91,0,0,0,1.36,2.78c.64.87,1.87,1.3,3.69,1.3a9.3,9.3,0,0,0,4.07-.84,9,9,0,0,0,2.91-2.2A9.35,9.35,0,0,0,223.13,54.69Zm-83,29.1a19.78,19.78,0,0,1-1.81,5,13.72,13.72,0,0,1-2.72,3.56,11.89,11.89,0,0,1-3.17,2.14,7.64,7.64,0,0,1-3,.71,12.66,12.66,0,0,1-2-.19,4,4,0,0,1-2.07-1.17,8,8,0,0,1-1.68-3,18.09,18.09,0,0,1-.71-5.75,53,53,0,0,1,1.29-10.68,64.13,64.13,0,0,1,3.62-11.64,34,34,0,0,1,5.7-9.31q3.36-3.83,7.5-3.82a4.8,4.8,0,0,1,2.52.58,5.35,5.35,0,0,1,1.56,1.36,6.51,6.51,0,0,1,.9,1.62,3.93,3.93,0,0,1,.33,1.36Z"/><path class="cls-1" d="M243.63,35.28a10.05,10.05,0,0,0,7.31-3,9.72,9.72,0,0,0,3-7.24,10,10,0,0,0-3-7.31,10,10,0,0,0-7.31-3,9.74,9.74,0,0,0-7.24,3,10.05,10.05,0,0,0-3,7.31,10.17,10.17,0,0,0,10.22,10.22Z"/><path class="cls-1" d="M318.67,42.27H300l-1.3,6.08a7.68,7.68,0,0,0-1.48-3.56,7.42,7.42,0,0,0-2.59-2.07,10.12,10.12,0,0,0-3.23-.91,29.94,29.94,0,0,0-3.31-.19,24.15,24.15,0,0,0-10.28,2.13,31.12,31.12,0,0,0-8.34,5.7A36.55,36.55,0,0,0,263,57.66a58.14,58.14,0,0,0-4.53,9.7,62.18,62.18,0,0,0-2.72,10.09,54.09,54.09,0,0,0-.9,9.45c0,.33,0,.64,0,1a17,17,0,0,1-3,4.08,9.77,9.77,0,0,1-7,3.24,6.4,6.4,0,0,1-4-1q-1.29-1-1.29-3.75a17.9,17.9,0,0,1,.52-4.14l9.31-44H230.82L222,83.79a41.89,41.89,0,0,0-1,8.41q0,8.16,4,11.84a14,14,0,0,0,9.83,3.69A29.3,29.3,0,0,0,241,107a21.48,21.48,0,0,0,7.31-3.3,32.06,32.06,0,0,0,7.37-7.24l.39-.54c.08.27.17.54.26.8a17.09,17.09,0,0,0,3.88,6.4,14.84,14.84,0,0,0,5.5,3.56,18.72,18.72,0,0,0,6.4,1.1,18.45,18.45,0,0,0,6.34-1,22.41,22.41,0,0,0,5.24-2.71A25,25,0,0,0,288,100.1a38.69,38.69,0,0,0,3.36-4.4,14.59,14.59,0,0,0,4.07,8.86,11.92,11.92,0,0,0,8.61,3.17,11.59,11.59,0,0,0,4.46-.78,8.91,8.91,0,0,0,3.3-2.39,19.06,19.06,0,0,0,2.65-4.08c.82-1.63,1.66-3.58,2.53-5.82a6.94,6.94,0,0,1-2.85.52,6.37,6.37,0,0,1-4-1q-1.29-1-1.29-3.75a18.42,18.42,0,0,1,.51-4.14Zm-27.3,41.52a19.4,19.4,0,0,1-1.81,5,13.51,13.51,0,0,1-2.72,3.56,11.74,11.74,0,0,1-3.17,2.14,7.64,7.64,0,0,1-3,.71,12.54,12.54,0,0,1-2-.19,3.9,3.9,0,0,1-2.07-1.17,8,8,0,0,1-1.69-3,18.09,18.09,0,0,1-.71-5.75,52.41,52.41,0,0,1,1.3-10.68,63.35,63.35,0,0,1,3.62-11.64,34,34,0,0,1,5.69-9.31q3.36-3.83,7.5-3.82a4.86,4.86,0,0,1,2.53.58,5.44,5.44,0,0,1,1.55,1.36,6.89,6.89,0,0,1,.91,1.62,4.12,4.12,0,0,1,.32,1.36Z"/><path class="cls-1" d="M355.54,18.72a8.88,8.88,0,0,0-2.14-6.15,7.81,7.81,0,0,0-6.14-2.39,9.28,9.28,0,0,0-6.73,2.65,8.65,8.65,0,0,0-2.72,6.41A7.29,7.29,0,0,0,339.43,24a14.49,14.49,0,0,0,4.08,3.43,2.82,2.82,0,0,1,1.55,2.2l-6.34,9.05a2,2,0,0,0,1.16,1.81A40.86,40.86,0,0,0,351.4,29.72Q355.54,23.77,355.54,18.72Z"/><path class="cls-1" d="M392.92,79.07c-.17-2-.38-4.66-.64-7.89s-.56-7.44-.91-12.61-.69-12-1-20.32l-19.15,2.59q-3,9.58-6.73,19.09a159.13,159.13,0,0,1-9.18,19.21,12.11,12.11,0,0,0-4.79,4.4,13.44,13.44,0,0,0-2.07,7.63,17.13,17.13,0,0,0,1.1,6,14.58,14.58,0,0,0,3.43,5.3,17.81,17.81,0,0,0,5.89,3.82,21.89,21.89,0,0,0,8.47,1.49,36.46,36.46,0,0,0,8.54-1.1,25.63,25.63,0,0,0,8.41-3.75,21.54,21.54,0,0,0,6.4-6.93,20.54,20.54,0,0,0,2.52-10.6C393.18,83.19,393.1,81.1,392.92,79.07Zm-19.47,12.1a10.31,10.31,0,0,1-2.52,3.75,8.66,8.66,0,0,1-3.62,2,15.17,15.17,0,0,1-4.14.59c-2.85,0-4.87-.76-6.08-2.27s-1.81-3.77-1.81-6.79a2.51,2.51,0,0,0,1.49,1.36,6.12,6.12,0,0,0,2,.32,5,5,0,0,0,4.14-2,6.91,6.91,0,0,0,1.55-4.34,4.46,4.46,0,0,0-.84-2.78,6.05,6.05,0,0,0-2.13-1.74q3.22-6.21,5.88-12.16a108.29,108.29,0,0,0,4.6-12.3q.51,7.52,1,12.3t.77,8c.22,2.15.39,4,.52,5.56s.19,3.15.19,4.79A14.74,14.74,0,0,1,373.45,91.17Z"/><path class="cls-1" d="M354.77,124a12.25,12.25,0,0,1,0,14.29A12.24,12.24,0,0,1,354.77,124Z"/><path class="cls-1" d="M352.44,154a12.09,12.09,0,0,1,2.33-7.15,12.27,12.27,0,0,1,0,14.29A12.1,12.1,0,0,1,352.44,154Z"/><polygon class="cls-1" points="364.22 159.05 362.9 164.96 358.49 160.82 359.81 154.91 364.22 159.05"/><polygon class="cls-1" points="374.48 149.4 373.56 151.61 371.3 149.37 374.48 149.4"/><path class="cls-1" d="M369,147.16a1.22,1.22,0,0,1-.93,2.25A1.22,1.22,0,0,1,369,147.16Z"/><path class="cls-1" d="M364.49,149a12.12,12.12,0,0,1,3.4,6.71,12.23,12.23,0,0,1-10.09-10.11A12,12,0,0,1,364.49,149Z"/><path class="cls-1" d="M354.77,141.14a1.43,1.43,0,0,1,0,2.85A1.43,1.43,0,0,1,354.77,141.14Z"/><path class="cls-1" d="M373.32,142.56a12.16,12.16,0,0,1-14.26,0A12.19,12.19,0,0,1,373.32,142.56Z"/><path class="cls-1" d="M369.67,136.38a1.22,1.22,0,0,1-2.25.93A1.22,1.22,0,0,1,369.67,136.38Z"/><polygon class="cls-1" points="374.48 135.76 371.3 135.78 373.56 133.54 374.48 135.76"/><path class="cls-1" d="M364.49,136.12a12,12,0,0,1-6.69,3.4,12.23,12.23,0,0,1,10.09-10.11A12.12,12.12,0,0,1,364.49,136.12Z"/><polygon class="cls-1" points="364.22 126.08 359.81 130.22 358.49 124.31 362.9 120.17 364.22 126.08"/><path class="cls-1" d="M46.72,161.17a12.27,12.27,0,0,1,0-14.3A12.25,12.25,0,0,1,46.72,161.17Z"/><path class="cls-1" d="M49.05,131.11a12.09,12.09,0,0,1-2.33,7.15,12.27,12.27,0,0,1,0-14.29A12.1,12.1,0,0,1,49.05,131.11Z"/><polygon class="cls-1" points="37.27 126.08 38.59 120.17 43 124.31 41.68 130.22 37.27 126.08"/><polygon class="cls-1" points="27.01 135.73 27.93 133.52 30.19 135.76 27.01 135.73"/><path class="cls-1" d="M32.48,138a1.22,1.22,0,0,1,.93-2.25A1.22,1.22,0,0,1,32.48,138Z"/><path class="cls-1" d="M37,136.12a12.12,12.12,0,0,1-3.4-6.7,12.21,12.21,0,0,1,10.09,10.1A12,12,0,0,1,37,136.12Z"/><path class="cls-1" d="M46.72,144a1.42,1.42,0,0,1,0-2.84A1.42,1.42,0,0,1,46.72,144Z"/><path class="cls-1" d="M28.17,142.57a12.17,12.17,0,0,1,14.26,0A12.19,12.19,0,0,1,28.17,142.57Z"/><path class="cls-1" d="M31.82,148.75a1.22,1.22,0,0,1,2.25-.93A1.22,1.22,0,0,1,31.82,148.75Z"/><polygon class="cls-1" points="27.01 149.37 30.19 149.35 27.93 151.59 27.01 149.37"/><path class="cls-1" d="M37,149a12.09,12.09,0,0,1,6.69-3.4,12.23,12.23,0,0,1-10.08,10.11A12,12,0,0,1,37,149Z"/><polygon class="cls-1" points="37.27 159.05 41.68 154.92 43 160.82 38.59 164.96 37.27 159.05"/></svg>