<svg id="Layer_1" data-name="Layer 1" xmlns="http://www.w3.org/2000/svg" viewBox="0 0 250 123"><defs><style>.cls-1{fill:#fbb03b;}</style></defs><path class="cls-1" d="M58.88,80.51A43,43,0,0,1,82.72,68.29a43.18,43.18,0,0,1-35.91,36.16A43.25,43.25,0,0,1,58.88,80.51Z"/><polygon class="cls-1" points="102.38 80.13 148.03 79.96 125.27 102.86 102.38 80.13"/><path class="cls-1" d="M83.9,48.69,83.74,1.47a23.78,23.78,0,0,1,.16,47.22Z"/><path class="cls-1" d="M116.28,25A8.72,8.72,0,1,1,125,33.65,8.71,8.71,0,0,1,116.28,25Z"/><path class="cls-1" d="M166.09,1.2l.16,47.19a23.76,23.76,0,0,1-.16-47.19Z"/><path class="cls-1" d="M148.75,66.83,101.54,67a23.77,23.77,0,0,1,47.21-.16Z"/><path class="cls-1" d="M35.43,18.71a6.55,6.55,0,1,1-6.5,6.55A6.53,6.53,0,0,1,35.43,18.71Z"/><polygon class="cls-1" points="70.61 2.29 70.76 47.95 47.87 25.19 70.61 2.29"/><path class="cls-1" d="M214.55,31.17a6.54,6.54,0,1,1,6.52-6.56A6.54,6.54,0,0,1,214.55,31.17Z"/><polygon class="cls-1" points="179.4 47.58 179.23 1.93 202.13 24.67 179.4 47.58"/><path class="cls-1" d="M203.71,103.92A43.11,43.11,0,0,1,167.58,68a43.14,43.14,0,0,1,36.13,35.9Z"/><path class="cls-1" d="M125.33,121.8a6.54,6.54,0,1,1,6.51-6.55A6.52,6.52,0,0,1,125.33,121.8Z"/></svg>