<svg id="Layer_1" data-name="Layer 1" xmlns="http://www.w3.org/2000/svg" viewBox="0 0 250 123"><defs><style>.cls-1{fill:#fff;}</style></defs><path class="cls-1" d="M156,122.82l-5.78-13.6-13.58-5.83,13.6-5.8L156.1,84l5.78,13.6,13.59,5.84-13.61,5.78Zm-9.19-19.42,6.46,2.78,2.75,6.47,2.78-6.46,6.47-2.76-6.46-2.77-2.75-6.47-2.78,6.45Z"/><path class="cls-1" d="M172.53,84.69a17.82,17.82,0,0,1-9.57-2.8l-2.11-1.34,25.4-25.31,1.34,2.12a17.73,17.73,0,0,1-2.51,22.11h0A17.77,17.77,0,0,1,172.53,84.69Zm-5.15-5a13.82,13.82,0,0,0,18-17.91Z"/><path class="cls-1" d="M157.68,77.94,130.59,24.77l53.07,27.29ZM139.78,34l19,37.24,18.19-18.12Z"/><path class="cls-1" d="M185.48,37.05h0c-5.85,0-39.06-14.39-42.83-16l-4.24-1.84,4.25-1.83c3.77-1.62,37-15.84,42.88-15.84h0A17.79,17.79,0,0,1,203.27,19.3h0A17.82,17.82,0,0,1,185.48,37.05Zm-37-17.85c14,6,33.54,13.84,37,13.85h0A13.81,13.81,0,0,0,199.27,19.3h0A13.78,13.78,0,0,0,185.53,5.51h0C182.1,5.51,162.55,13.27,148.52,19.2Z"/><path class="cls-1" d="M125,27.18a8,8,0,0,1-5.68-2.36h0a8,8,0,0,1,0-11.36,8,8,0,0,1,13.7,5.7,8,8,0,0,1-8,8Zm0-12a4,4,0,0,0-4,4A4,4,0,0,0,122.15,22h0A4,4,0,0,0,129,19.15a4,4,0,0,0-4-4Z"/><path class="cls-1" d="M64.46,36.82A17.81,17.81,0,0,1,46.73,19h0A17.81,17.81,0,0,1,64.48,1.26h0c5.85,0,39.06,14.4,42.83,16l4.24,1.85L107.34,21C103.56,22.6,70.29,36.82,64.46,36.82Zm0-31.56A13.79,13.79,0,0,0,50.73,19h0A13.81,13.81,0,0,0,64.47,32.82c3.4,0,23-7.77,37-13.7-14-6-33.54-13.85-37-13.86Z"/><path class="cls-1" d="M92.09,77.82l-25.88-26,53.17-27.1ZM72.93,52.92,91,71.1l19.12-37.16Z"/><path class="cls-1" d="M77.29,84.51a17.76,17.76,0,0,1-12.6-5.26h0a17.78,17.78,0,0,1-2.44-22.13L63.59,55,88.92,80.42,86.8,81.75A17.78,17.78,0,0,1,77.29,84.51Zm-9.77-8.09a13.94,13.94,0,0,0,14.85,3.1l-17.9-18a13.75,13.75,0,0,0,3,14.87Z"/><path class="cls-1" d="M124.87,97.43h0a17.78,17.78,0,0,1-17.73-17.79h0c0-5.85,14.39-39.07,16-42.84L125,32.56l1.83,4.25c1.62,3.77,15.85,37.05,15.84,42.89A17.8,17.8,0,0,1,124.87,97.43ZM111.12,79.65a13.77,13.77,0,0,0,13.73,13.78h0a13.8,13.8,0,0,0,13.79-13.74c0-3.41-7.76-23-13.69-37-6,14-13.85,33.55-13.85,37Z"/><path class="cls-1" d="M93.59,122.71,87.8,109.1l-13.58-5.84,13.6-5.79L93.66,83.9l5.79,13.6L113,103.33l-13.58,5.79Zm-9.2-19.43,6.46,2.78,2.76,6.48,2.78-6.47,6.46-2.75-6.45-2.78-2.76-6.47-2.77,6.45Z"/></svg>