<svg id="Layer_1" data-name="Layer 1" xmlns="http://www.w3.org/2000/svg" viewBox="0 0 250 123"><defs><style>.cls-1{fill:#fff;}</style></defs><path class="cls-1" d="M185.45,29.71c-14.12,0-28.22-4.18-38.95-12.53l-2-1.58,2-1.58C168-2.68,203-2.67,224.45,14l2,1.58-2,1.58C213.68,25.54,199.56,29.71,185.45,29.71ZM151.1,15.6c19.49,13.55,49.18,13.55,68.74,0C200.32,2.06,170.63,2.06,151.1,15.6Z"/><path class="cls-1" d="M64.53,29.71c-14.11,0-28.22-4.17-39-12.52l-2.1-1.63L25.62,14A66,66,0,0,1,64.53,1.31h0A65.78,65.78,0,0,1,103.46,14l2.15,1.57-2.1,1.63C92.76,25.54,78.64,29.71,64.53,29.71Zm-34.29-14c19.49,13.47,49.09,13.47,68.6,0A61.73,61.73,0,0,0,64.54,5.31h0v0A61.8,61.8,0,0,0,30.24,15.66Z"/><path class="cls-1" d="M38.61,67.71l-35.74-8L27.92,33.05l35.73,8Zm-28-10.38,26.66,6,18.68-19.9-26.66-6Z"/><path class="cls-1" d="M90.9,122.67l-17.19-7.12L91.08,98Zm-10.16-8.54L87,116.7l.06-8.91Z"/><path class="cls-1" d="M95.19,96.7a9.44,9.44,0,0,1-7.35-3.59,8.37,8.37,0,0,1,5.44-13,9.36,9.36,0,0,1,8.45,3.5,8.36,8.36,0,0,1-5.42,13A8.44,8.44,0,0,1,95.19,96.7ZM94.42,84c-.2,0-.41,0-.61,0A4.39,4.39,0,0,0,91,90.69a5.35,5.35,0,0,0,4.75,2,3.81,3.81,0,0,0,3.11-2.57l0,0a3.81,3.81,0,0,0-.37-4A5.32,5.32,0,0,0,94.42,84Z"/><path class="cls-1" d="M53.25,87.26l.33-2.63c3.35-27,28.07-51.66,55.11-55l2.63-.32-.42,2.62A65.45,65.45,0,0,1,92.37,68.36h0a65.81,65.81,0,0,1-36.5,18.49ZM106.47,34C83.12,38.22,62.19,59.1,58,82.41A61.74,61.74,0,0,0,89.54,65.53h0A61.4,61.4,0,0,0,106.47,34Z"/><path class="cls-1" d="M125,24.89a10.3,10.3,0,0,1-5.19-1.37,8.76,8.76,0,0,1-4.3-8,8.74,8.74,0,0,1,4.32-7.89,10.56,10.56,0,0,1,10.33,0,8.82,8.82,0,0,1,4.37,8,8.78,8.78,0,0,1-4.36,7.91A10.34,10.34,0,0,1,125,24.89Zm0-14.58a6.29,6.29,0,0,0-3.15.81,4.73,4.73,0,0,0-2.34,4.45,4.75,4.75,0,0,0,2.32,4.5,6.51,6.51,0,0,0,6.33,0,4.71,4.71,0,0,0,2.37-4.43V15.6a4.77,4.77,0,0,0-2.38-4.47A6.22,6.22,0,0,0,125,10.31Z"/><path class="cls-1" d="M125,116.82l-1.58-2c-16.75-21.43-16.76-56.31,0-77.76L125,35l1.58,2c16.75,21.44,16.76,56.32,0,77.76Zm0-75.18c-13.59,19.48-13.59,49.1,0,68.56C138.6,90.73,138.6,61.11,125,41.64Z"/><path class="cls-1" d="M155.08,96.85a7.64,7.64,0,0,1-4.64-1.57,9.33,9.33,0,0,1-3.5-8.44A8.4,8.4,0,0,1,160,81.45a9.33,9.33,0,0,1,3.5,8.44,7.8,7.8,0,0,1-5.05,6.25A8.54,8.54,0,0,1,155.08,96.85Zm.27-13a4.5,4.5,0,0,0-1.8.4,3.79,3.79,0,0,0-2.64,3.11,5.25,5.25,0,0,0,2,4.71,3.81,3.81,0,0,0,4,.36l.06,0a3.8,3.8,0,0,0,2.59-3.09,5.27,5.27,0,0,0-2-4.7A3.63,3.63,0,0,0,155.35,83.87Z"/><path class="cls-1" d="M159,122.67,158.79,98l17.37,17.55Zm3.89-14.86.06,8.9,6.2-2.57Z"/><path class="cls-1" d="M196.77,87.25l-2.62-.41a65.7,65.7,0,0,1-36.52-18.48h0a65.6,65.6,0,0,1-18.54-36.42l-.41-2.62,2.63.32c27,3.33,51.76,28,55.13,55ZM160.46,65.53a61.67,61.67,0,0,0,31.6,16.88C187.82,59.1,166.88,38.22,143.53,34a61.55,61.55,0,0,0,16.93,31.51Z"/><path class="cls-1" d="M211.39,67.74l-25-26.69,35.74-8,25,26.67ZM194.08,43.43l18.66,19.9,26.68-6L220.74,37.47Z"/></svg>