<svg id="Layer_1" data-name="Layer 1" xmlns="http://www.w3.org/2000/svg" viewBox="0 0 286 244"><defs><style>.cls-1{opacity:0.1;}.cls-2{fill:#fff;}</style></defs><g class="cls-1"><polygon class="cls-2" points="37.65 227.15 39.66 222.41 41.7 227.15 46.43 229.16 41.7 231.2 39.69 235.93 37.66 231.2 32.93 229.19 37.65 227.15"/><path class="cls-2" d="M27.66,216.19a7.48,7.48,0,0,1,1.05,9.27L18.4,215.18A7.46,7.46,0,0,1,27.66,216.19Z"/><polygon class="cls-2" points="15.66 217.83 26.08 228.21 4.8 239.17 15.66 217.83"/><path class="cls-2" d="M-.08,208a7.45,7.45,0,0,1,7.46,7.42c0,2.65-7.4,19.88-7.4,19.88s-7.47-17.2-7.48-19.84A7.44,7.44,0,0,1-.08,208Z"/><path class="cls-2" d="M2,246a2.84,2.84,0,0,1-4,0,2.86,2.86,0,0,1,0-4,2.85,2.85,0,0,1,4,0A2.84,2.84,0,0,1,2,246Z"/><path class="cls-2" d="M28.56,251.38C25.91,251.39,8.7,244,8.7,244s17.18-7.47,19.82-7.48a7.45,7.45,0,0,1,0,14.89Z"/><path class="cls-2" d="M285.92,208a7.45,7.45,0,0,1,7.46,7.42c0,2.65-7.4,19.88-7.4,19.88s-7.47-17.2-7.48-19.84A7.44,7.44,0,0,1,285.92,208Z"/><path class="cls-2" d="M288,246a2.85,2.85,0,1,1,0-4A2.84,2.84,0,0,1,288,246Z"/><polygon class="cls-2" points="270.22 217.9 281.18 239.19 259.85 228.33 270.22 217.9"/><path class="cls-2" d="M258.22,216.31a7.49,7.49,0,0,1,9.26-1.05L257.2,225.58A7.49,7.49,0,0,1,258.22,216.31Z"/><polygon class="cls-2" points="253.02 229.34 248.28 231.37 246.26 236.11 244.23 231.38 239.5 229.37 244.22 227.33 246.24 222.59 248.27 227.32 253.02 229.34"/><path class="cls-2" d="M250,244.08a7.45,7.45,0,0,1,7.42-7.46c2.64,0,19.86,7.41,19.86,7.41s-17.19,7.47-19.82,7.48A7.44,7.44,0,0,1,250,244.08Z"/><path class="cls-2" d="M2,2A2.84,2.84,0,0,1-2,2,2.86,2.86,0,0,1-2-2,2.85,2.85,0,0,1,2-2,2.84,2.84,0,0,1,2,2Z"/><path class="cls-2" d="M.09,36a7.45,7.45,0,0,1-7.47-7.42C-7.38,25.94,0,8.71,0,8.71s7.46,17.2,7.48,19.84A7.45,7.45,0,0,1,.09,36Z"/><polygon class="cls-2" points="15.78 26.1 4.82 4.81 26.15 15.68 15.78 26.1"/><path class="cls-2" d="M27.79,27.69a7.46,7.46,0,0,1-9.26,1L28.8,18.42A7.49,7.49,0,0,1,27.79,27.69Z"/><path class="cls-2" d="M28.56,7.38C25.91,7.39,8.7,0,8.7,0S25.88-7.5,28.52-7.51A7.44,7.44,0,0,1,36-.08,7.44,7.44,0,0,1,28.56,7.38Z"/><polygon class="cls-2" points="32.99 14.66 37.71 12.63 39.73 7.89 41.76 12.62 46.5 14.63 41.77 16.67 39.76 21.41 37.72 16.68 32.99 14.66"/><path class="cls-2" d="M288,2a2.84,2.84,0,0,1-4,0,2.86,2.86,0,0,1,0-4,2.85,2.85,0,0,1,4,0A2.84,2.84,0,0,1,288,2Z"/><polygon class="cls-2" points="248.35 16.84 246.34 21.59 244.3 16.85 239.57 14.84 244.29 12.81 246.3 8.07 248.34 12.79 253.08 14.81 248.35 16.84"/><path class="cls-2" d="M250,.08a7.45,7.45,0,0,1,7.42-7.46c2.64,0,19.86,7.41,19.86,7.41S260.12,7.5,257.49,7.51A7.44,7.44,0,0,1,250,.08Z"/><path class="cls-2" d="M258.34,27.81a7.46,7.46,0,0,1-1-9.26L267.6,28.83A7.47,7.47,0,0,1,258.34,27.81Z"/><polygon class="cls-2" points="270.34 26.17 259.92 15.79 281.2 4.83 270.34 26.17"/><path class="cls-2" d="M286.09,36a7.45,7.45,0,0,1-7.47-7.42c0-2.64,7.41-19.87,7.41-19.87s7.46,17.2,7.48,19.84A7.45,7.45,0,0,1,286.09,36Z"/><polygon class="cls-2" points="180.65 105.15 182.66 100.41 184.7 105.15 189.43 107.16 184.7 109.2 182.69 113.93 180.66 109.2 175.93 107.19 180.65 105.15"/><path class="cls-2" d="M170.66,94.19a7.48,7.48,0,0,1,1.05,9.27L161.4,93.18A7.46,7.46,0,0,1,170.66,94.19Z"/><polygon class="cls-2" points="158.66 95.83 169.08 106.21 147.8 117.17 158.66 95.83"/><path class="cls-2" d="M142.92,86a7.45,7.45,0,0,1,7.46,7.42c0,2.65-7.4,19.88-7.4,19.88s-7.47-17.2-7.48-19.84A7.44,7.44,0,0,1,142.92,86Z"/><path class="cls-2" d="M145,124a2.85,2.85,0,1,1,0-4A2.84,2.84,0,0,1,145,124Z"/><polygon class="cls-2" points="127.22 95.9 138.18 117.19 116.85 106.33 127.22 95.9"/><path class="cls-2" d="M115.22,94.31a7.49,7.49,0,0,1,9.26-1L114.2,103.58A7.49,7.49,0,0,1,115.22,94.31Z"/><polygon class="cls-2" points="110.02 107.34 105.28 109.37 103.27 114.11 101.23 109.38 96.5 107.37 101.22 105.33 103.24 100.59 105.27 105.32 110.02 107.34"/><polygon class="cls-2" points="105.35 138.84 103.33 143.59 101.3 138.85 96.57 136.84 101.29 134.81 103.3 130.07 105.34 134.79 110.08 136.81 105.35 138.84"/><path class="cls-2" d="M107,122.08a7.45,7.45,0,0,1,7.42-7.46c2.64,0,19.86,7.41,19.86,7.41s-17.19,7.47-19.82,7.48A7.44,7.44,0,0,1,107,122.08Z"/><path class="cls-2" d="M115.34,149.81a7.46,7.46,0,0,1-1-9.26l10.31,10.28A7.47,7.47,0,0,1,115.34,149.81Z"/><polygon class="cls-2" points="127.34 148.17 116.92 137.79 138.2 126.83 127.34 148.17"/><path class="cls-2" d="M143.09,158a7.45,7.45,0,0,1-7.47-7.42c0-2.64,7.41-19.87,7.41-19.87s7.46,17.2,7.48,19.84A7.45,7.45,0,0,1,143.09,158Z"/><polygon class="cls-2" points="158.78 148.1 147.82 126.81 169.15 137.68 158.78 148.1"/><path class="cls-2" d="M170.79,149.69a7.46,7.46,0,0,1-9.26,1.05l10.27-10.32A7.49,7.49,0,0,1,170.79,149.69Z"/><path class="cls-2" d="M171.56,129.38c-2.65,0-19.86-7.41-19.86-7.41s17.18-7.47,19.82-7.48a7.45,7.45,0,0,1,0,14.89Z"/><polygon class="cls-2" points="175.99 136.66 180.71 134.63 182.73 129.89 184.76 134.62 189.5 136.63 184.77 138.67 182.76 143.41 180.72 138.68 175.99 136.66"/></g></svg>