<svg id="Layer_1" data-name="Layer 1" xmlns="http://www.w3.org/2000/svg" viewBox="0 0 250 123"><defs><style>.cls-1{fill:#fbb03b;}</style></defs><path class="cls-1" d="M228.81,13c-22,17.07-57.8,17.11-79.79,0C171-4.12,206.78-4.12,228.81,13Z"/><path class="cls-1" d="M61.09,0A67.57,67.57,0,0,1,101,13C79,30.09,43.22,30.11,21.21,13A67.69,67.69,0,0,1,61.09,0Z"/><polygon class="cls-1" points="32.98 65.74 0 58.35 23.11 33.75 56.08 41.13 32.98 65.74"/><polygon class="cls-1" points="86.87 122.99 74.51 117.87 87 105.25 86.87 122.99"/><path class="cls-1" d="M99.36,92.5c-3.26,8.16-16.07,2.88-12.58-5.2C90.05,79.1,102.85,84.39,99.36,92.5Z"/><path class="cls-1" d="M89,67.25a67.49,67.49,0,0,1-37.41,19C55.05,58.57,80.37,33.33,108,29.93A67.15,67.15,0,0,1,89,67.25Z"/><path class="cls-1" d="M132.94,13c.13,10.23-16,10.26-15.87,0C116.92,2.71,133.07,2.73,132.94,13Z"/><path class="cls-1" d="M125,116.53C107.87,94.6,107.86,58.9,125,37,142.16,58.9,142.14,94.61,125,116.53Z"/><path class="cls-1" d="M159.54,96.16c-8.09,3.5-13.42-9.29-5.2-12.54C162.43,80.13,167.77,92.91,159.54,96.16Z"/><polygon class="cls-1" points="163 123 162.87 105.26 175.36 117.89 163 123"/><path class="cls-1" d="M161,67.26a67.45,67.45,0,0,1-19-37.33c27.65,3.4,53,28.62,56.43,56.27A67.63,67.63,0,0,1,161,67.26Z"/><polygon class="cls-1" points="217.02 65.77 193.93 41.15 226.9 33.78 250 58.38 217.02 65.77"/></svg>