<svg id="Layer_1" data-name="Layer 1" xmlns="http://www.w3.org/2000/svg" viewBox="0 0 250 123"><defs><style>.cls-1{fill:#fff;}</style></defs><path class="cls-1" d="M47.71,106.05l.42-2.72A43.42,43.42,0,0,1,84.19,67l2.71-.44-.42,2.71a43.39,43.39,0,0,1-36.05,36.32ZM82,71.54a39,39,0,0,0-18.9,10.58h0a39.27,39.27,0,0,0-10.46,19A39.41,39.41,0,0,0,82,71.54Z"/><path class="cls-1" d="M125.27,104.94,98.5,78.36l53.38-.19Zm-17.1-22.62,17.08,17,17-17.09Z"/><path class="cls-1" d="M83.64,52.5,83.47,2.75,85.72,3a24.77,24.77,0,0,1,.16,49.19ZM87.48,7.39l.14,40.44a20.75,20.75,0,0,0-.14-40.44Z"/><path class="cls-1" d="M125,37.82a10.35,10.35,0,0,1-10.34-10.31h0A10.35,10.35,0,0,1,125,17.14h0a10.34,10.34,0,0,1,0,20.68ZM118.65,27.5A6.36,6.36,0,0,0,125,33.82h0A6.29,6.29,0,0,0,129.49,32a6.37,6.37,0,0,0,1.86-4.52A6.35,6.35,0,0,0,125,21.14h0a6.33,6.33,0,0,0-6.33,6.36Z"/><path class="cls-1" d="M166.52,52.2l-2.25-.27a24.76,24.76,0,0,1-.17-49.17l2.25-.28ZM162.36,7.14a20.75,20.75,0,0,0,.14,40.43Z"/><path class="cls-1" d="M100.27,69.77l.28-2.25a24.85,24.85,0,0,1,24.51-21.91h.09a24.87,24.87,0,0,1,24.58,21.74L150,69.6Zm24.88-20.16h-.08a20.83,20.83,0,0,0-20.16,16.14l40.44-.13A20.86,20.86,0,0,0,125.15,49.61Z"/><path class="cls-1" d="M39.24,36.05a8.27,8.27,0,0,1,0-16.54h0a8.27,8.27,0,0,1,0,16.54Zm0-12.54a4.21,4.21,0,0,0-3,1.25,4.27,4.27,0,0,0,0,6,4.2,4.2,0,0,0,3,1.24h0a4.27,4.27,0,0,0,0-8.54h0Z"/><path class="cls-1" d="M75.07,54.35,48.29,27.73,74.88,1ZM54,27.71,71,44.7l-.11-34.07Z"/><path class="cls-1" d="M210.75,35.45a8.26,8.26,0,0,1,0-16.52h0a8.26,8.26,0,1,1,0,16.52h0Zm0-12.52h0a4.26,4.26,0,0,0-3,7.28,4.2,4.2,0,0,0,3,1.24h0a4.26,4.26,0,1,0,0-8.52Z"/><path class="cls-1" d="M175.13,54,174.92.61,201.7,27.22ZM179,10.26l.13,34.07,17-17.09Z"/><path class="cls-1" d="M202.8,105.52l-2.71-.41a43.28,43.28,0,0,1-36.28-36.06l-.43-2.7,2.7.41a43.37,43.37,0,0,1,36.29,36.05ZM168.31,71.26a39.31,39.31,0,0,0,29.55,29.36,39.31,39.31,0,0,0-29.55-29.36Z"/><path class="cls-1" d="M125.27,122.25A8.23,8.23,0,0,1,117,114a8.28,8.28,0,0,1,8.22-8.3h0a8.29,8.29,0,0,1,8.29,8.25,8.21,8.21,0,0,1-8.22,8.27Zm0-12.52h0A4.27,4.27,0,0,0,121,114a4.2,4.2,0,0,0,1.26,3,4.34,4.34,0,0,0,3,1.22h0a4.24,4.24,0,0,0,3-1.25,4.18,4.18,0,0,0,1.22-3A4.28,4.28,0,0,0,125.27,109.73Z"/></svg>