<svg id="Layer_1" data-name="Layer 1" xmlns="http://www.w3.org/2000/svg" viewBox="0 0 250 123"><defs><style>.cls-1{fill:#fbb03b;}</style></defs><polygon class="cls-1" points="162.74 102.58 173.44 107.18 162.72 111.74 158.13 122.44 153.57 111.72 142.87 107.13 153.59 102.56 158.19 91.87 162.74 102.58"/><path class="cls-1" d="M187.62,80.08a16.89,16.89,0,0,1-21,2.29L190,59.12A16.9,16.9,0,0,1,187.62,80.08Z"/><polygon class="cls-1" points="184.03 52.89 160.46 76.38 135.87 28.12 184.03 52.89"/><path class="cls-1" d="M206.41,17.36a16.84,16.84,0,0,1-16.86,16.81c-6,0-44.87-16.93-44.87-16.93S183.65.49,189.62.5A16.85,16.85,0,0,1,206.41,17.36Z"/><path class="cls-1" d="M120.45,21.75a6.43,6.43,0,1,1,9.09,0A6.44,6.44,0,0,1,120.45,21.75Z"/><path class="cls-1" d="M43.59,17.07A16.84,16.84,0,0,1,60.44.25c6,0,44.87,16.94,44.87,16.94s-39,16.74-44.93,16.74A16.83,16.83,0,0,1,43.59,17.07Z"/><polygon class="cls-1" points="65.83 52.68 114.08 28.08 89.31 76.24 65.83 52.68"/><path class="cls-1" d="M62.13,79.84a16.9,16.9,0,0,1-2.3-21L83.09,82.22A16.92,16.92,0,0,1,62.13,79.84Z"/><path class="cls-1" d="M108,81.78c0-6,16.94-44.89,16.94-44.89s16.74,39,16.73,44.94a16.84,16.84,0,0,1-33.67,0Z"/><polygon class="cls-1" points="91.54 91.74 96.1 102.45 106.78 107.05 96.08 111.62 91.48 122.32 86.92 111.6 76.22 106.99 86.94 102.44 91.54 91.74"/></svg>